<?xml version="1.0" encoding="UTF-8"?><svg id="Layer_1" xmlns="http://www.w3.org/2000/svg" viewBox="0 0 504.69 506"><path d="M504.69,0l-12.08,45-71.68,267-6.88,25.64-7.29,27.15c-20.5,59.82-67.37,107.39-126.74,128.83-14.79,5.35-30.36,9.07-46.5,10.96-8.04.94-16.22,1.42-24.52,1.42-22.88,0-44.89-3.67-65.49-10.47-13.96-4.6-27.27-10.63-39.75-17.92C45.76,443.74,5.55,382.73.53,312c-.35-4.95-.53-9.95-.53-15C0,181.79,93.22,88.35,208.35,88l-24.61,91.67c-54.14,11.59-94.74,59.72-94.74,117.33,0,5.08.32,10.09.93,15,3.64,29.17,17.75,55.09,38.45,73.88,11.07,10.05,24.02,18.06,38.27,23.43,13.17,4.97,27.44,7.69,42.35,7.69,18.27,0,35.59-4.08,51.09-11.39,28.42-13.39,50.74-37.62,61.63-67.35.01-.02.02-.04.03-.07l5.43-20.24,1.6-5.95,40.15-149.56,31.52-117.44L412.53,0h92.16Z" fill="#43c2c9" stroke-width="0"/><path d="M414.05,337.64c-1.83,9.29-4.27,18.35-7.29,27.15l7.29-27.15Z" fill="#43c2c9" stroke-width="0"/><polygon points="356.9 45 334.18 129.62 307.61 228.6 307.61 228.61 285.22 312 192.78 312 228.59 178.6 251.73 92.38 264.45 45 356.9 45" fill="#43c2c9" stroke-width="0"/></svg>