<?xml version="1.0" encoding="UTF-8"?><svg id="Layer_1" xmlns="http://www.w3.org/2000/svg" viewBox="0 0 1280 443.53"><path d="M442.38,0l-10.59,39.44-62.83,234.04-6.03,22.47-6.39,23.8c-17.97,52.44-59.05,94.13-111.09,112.93-12.96,4.69-26.61,7.95-40.76,9.61-7.05.82-14.22,1.24-21.49,1.24-20.06,0-39.35-3.22-57.41-9.18-12.24-4.03-23.9-9.32-34.84-15.71C40.11,388.96,4.86,335.48.46,273.48c-.31-4.34-.46-8.72-.46-13.15C0,159.35,81.71,77.44,182.63,77.14l-21.57,80.35c-47.46,10.16-83.04,52.35-83.04,102.85,0,4.45.28,8.84.82,13.15,3.19,25.57,15.56,48.29,33.7,64.76,9.7,8.81,21.05,15.83,33.55,20.54,11.54,4.36,24.05,6.74,37.12,6.74,16.01,0,31.2-3.58,44.78-9.98,24.91-11.74,44.48-32.98,54.02-59.04,0-.02.02-.04.03-.06l4.76-17.74,1.4-5.22,35.19-131.1,27.63-102.94L361.6,0h80.78Z" fill="#43c2c9" stroke-width="0"/><polygon points="312.84 39.44 292.92 113.62 269.63 200.38 269.63 200.39 250.01 273.48 168.98 273.48 200.37 156.55 220.65 80.98 231.8 39.44 312.84 39.44" fill="#43c2c9" stroke-width="0"/><path d="M534.91,75.62c10.53.15,19.64,2.78,27.33,7.89,7.69,5.12,13.34,12.25,16.93,21.4,3.59,9.15,4.88,19.31,3.87,30.49l-.22,2.4c-2.03,18.08-8.75,32.67-20.15,43.78-11.4,11.11-25.48,16.51-42.25,16.23-10.45-.15-19.49-2.74-27.12-7.79-7.62-5.04-13.27-12.1-16.93-21.18-3.67-9.07-4.99-19.17-3.97-30.27,1.81-19.31,8.44-34.7,19.87-46.17,11.43-11.47,25.65-17.06,42.63-16.77ZM508.23,138.61l-.33,6.42c-1.02,16.16,3.92,24.39,14.81,24.68,14.08.44,22.25-10.98,24.5-34.25l.44-9.89c.14-6.52-1.07-11.72-3.65-15.6-2.58-3.88-6.37-5.89-11.38-6.03-6.61-.22-12.03,2.48-16.28,8.1-4.25,5.62-6.95,14.48-8.11,26.58Z" fill="#111c1d" stroke-width="0"/><path d="M734.08,68.26l-1.64,9.54h22.33l-4.35,25.49h-22.33l-16.01,92.34h-35.94l16.01-92.34h-16.56v-.03s-4.67,0-4.67,0v.03h-22.34l-16.01,92.34h-35.94l16.01-92.34h-16.56l4.36-25.49,16.56-.1,1.41-10.34c1.81-12.56,6.82-22.55,15.03-29.95,8.78-7.84,20.22-11.68,34.3-11.54,3.63,0,9.55.8,17.75,2.4l-2.72,27.22c-3.34-.87-6.16-1.31-8.49-1.31-5.3,0-9.68,1.21-13.12,3.63-3.45,2.42-5.65,5.91-6.59,10.46l-1.63,9.52h30.01l13.55-.09,1.41-10.34c1.81-12.56,6.82-22.55,15.03-29.95,8.78-7.84,20.22-11.68,34.3-11.54,3.63,0,9.55.8,17.75,2.4l-2.72,27.22c-3.34-.87-6.17-1.31-8.49-1.31-5.3,0-9.68,1.21-13.12,3.63-3.45,2.42-5.65,5.91-6.59,10.46Z" fill="#111c1d" stroke-width="0"/><path d="M854.52,147.17l23.63-69.37h35.07l-47.37,117.83h-30.17l-6.75-69.48-31.04,69.48h-30.38l-6.53-117.83h33.65l-1.09,70.13,30.16-70.13h24.94l5.88,69.37Z" fill="#111c1d" stroke-width="0"/><path d="M957.76,90.65c8.78-10.24,18.91-15.28,30.38-15.14,11.83.29,20.6,4.61,26.3,12.96,5.7,8.35,7.75,19.67,6.15,33.98l-12.2,73.18h-35.83l12.31-73.7c.29-2.47.36-4.8.22-6.98-.51-7.2-4.5-10.9-11.98-11.12-6.46-.15-12.2,2.22-17.21,7.09l-15.03,84.71h-35.83l29.08-167.27h35.83l-12.2,62.29Z" fill="#111c1d" stroke-width="0"/><path d="M1156.82,48.5l-5.12,29.29h18.84l-4.46,25.48h-18.84l-9.15,54.12c-.51,3.7-.27,6.5.71,8.39.98,1.89,3.43,2.9,7.35,3.05,1.52.07,4.65-.11,9.37-.54l-2.61,26.57c-6.03,1.96-12.45,2.87-19.28,2.72-11.11-.15-19.42-3.41-24.94-9.8-5.52-6.39-7.77-15.06-6.75-26.03l9.58-58.48h-14.59l4.36-25.48h14.59l5.12-29.29h35.83Z" fill="#111c1d" stroke-width="0"/><path d="M1223.58,197.8c-10.53-.07-19.91-2.56-28.15-7.46-8.24-4.9-14.47-11.72-18.68-20.47-4.21-8.75-5.88-18.38-5.01-28.91l.33-3.05c1.96-19.38,8.69-34.72,20.2-46.01,11.51-11.29,25.61-16.72,42.31-16.28,10.09.15,18.73,2.71,25.92,7.69,7.19,4.98,12.45,11.85,15.79,20.61,3.34,8.76,4.43,18.59,3.27,29.5l-2.07,14.94h-70.13c.14,6.17,1.89,11.18,5.23,15.03,3.34,3.85,8.2,5.88,14.59,6.1,10.38.29,19.71-3.7,27.99-11.98l15.03,19.87c-4.43,6.3-10.62,11.24-18.57,14.83-7.95,3.58-16.64,5.45-26.08,5.59h-1.96ZM1232.29,103.93c-5.08-.14-9.49,1.44-13.23,4.77-3.74,3.32-6.99,8.89-9.75,16.69h35.83l.65-3.14c.44-2.53.51-4.91.22-7.15-1.24-7.22-5.81-10.94-13.72-11.16Z" fill="#111c1d" stroke-width="0"/><path d="M519.44,337.38l29.51-73.72h38.66l-55.76,117.83h-36.48l-18.84-117.83h36.81l6.1,73.72Z" fill="#111c1d" stroke-width="0"/><path d="M705.98,347.72c.94-4.79-2.76-8.38-11.11-10.78l-7.73-1.96c-12.63-3.34-21.89-8.02-27.77-14.05-5.88-6.03-8.64-13.18-8.28-21.45.36-11.33,5.39-20.53,15.08-27.61,9.69-7.08,21.51-10.54,35.45-10.4,13.87.15,25.1,3.67,33.7,10.56,8.6,6.9,12.98,16.19,13.12,27.88l-35.72-.11c.29-9.29-3.81-13.94-12.31-13.94-3.63,0-7.01,1.07-10.13,3.21-3.12,2.14-4.97,4.99-5.55,8.55-1.24,5.88,3.96,9.91,15.57,12.09,10.09,2.4,17.9,5.17,23.41,8.33,5.52,3.16,9.73,7.06,12.63,11.71,2.9,4.65,4.25,10.24,4.03,16.77-.22,7.12-2.54,13.47-6.97,19.06-4.43,5.59-10.84,10.06-19.22,13.39-8.39,3.34-17.48,4.9-27.28,4.68-8.49-.07-16.39-1.85-23.69-5.34-7.3-3.48-13-8.22-17.1-14.21-4.1-5.99-6.22-12.87-6.37-20.64l33.32.22c.14,10.45,5.37,15.61,15.68,15.46,4.43,0,8.2-1,11.32-2.99,3.12-2,5.08-4.81,5.88-8.44Z" fill="#111c1d" stroke-width="0"/><path d="M824.36,368.63c-8.79,10.38-19.38,15.43-31.8,15.14-11.54-.15-20.24-4.17-26.08-12.09-5.84-7.91-8.11-18.51-6.81-31.8l12.74-76.23h35.83l-12.96,76.76c-.22,2.11-.22,4.03,0,5.78.51,5.96,4.03,9.05,10.56,9.27,7.55.29,13.98-2.69,19.28-8.94l14.59-82.86h36.05l-20.47,117.83h-33.32l2.4-12.85Z" fill="#111c1d" stroke-width="0"/><path d="M940.99,381.48c-1.02-2.83-1.52-6.39-1.52-10.67-8.06,8.86-17.68,13.14-28.86,12.85-10.24-.15-18.73-3.56-25.48-10.24-6.75-6.68-9.91-14.77-9.47-24.28.36-12.78,5.7-22.6,16.01-29.46,10.31-6.86,24.39-10.29,42.25-10.29l11.98.22,1.31-6.64.44-5.77c-.29-6.6-3.59-10.02-9.91-10.24-7.84-.14-12.67,4.18-14.48,12.96l-35.94.11c.36-7.91,2.94-14.79,7.73-20.64,4.79-5.84,11.31-10.35,19.55-13.5,8.24-3.16,17.01-4.63,26.3-4.41,8.93.22,16.75,2.09,23.47,5.61,6.71,3.52,11.74,8.42,15.08,14.7,3.34,6.28,4.61,13.52,3.81,21.73l-8.82,55.43-.54,6.75c-.29,5.37.4,9.95,2.07,13.72l-.11,2.07h-34.85ZM920.51,357.74c7.33.29,13.76-2.94,19.28-9.69l3.59-18.95-9.26-.11c-5.74.15-10.67,1.83-14.81,5.06-4.14,3.23-6.57,7.64-7.3,13.23-.36,2.98.2,5.43,1.69,7.35,1.49,1.93,3.76,2.96,6.81,3.1Z" fill="#111c1d" stroke-width="0"/><path d="M1028.21,381.48h-35.94l28.97-167.27h35.94l-28.97,167.27Z" fill="#111c1d" stroke-width="0"/><path d="M1061.07,28.37l-6.29,36.31h35.93l6.29-36.31h-35.93ZM1032.11,195.64h35.94l20.87-120.53h-35.94l-20.87,120.53Z" fill="#111c1d" stroke-width="0"/><path d="M1175.87,345.8l-5.91,34.12-.38,2.19h35.93l.38-2.19,5.91-34.12h-35.93Z" fill="#111c1d" stroke-width="0"/><path d="M610.69,216.11l-6.29,36.31h35.93l6.29-36.31h-35.93ZM581.72,383.38h35.94l20.87-120.53h-35.94l-20.87,120.53Z" fill="#111c1d" stroke-width="0"/><path d="M1117.4,347.72c.94-4.79-2.76-8.38-11.11-10.78l-7.73-1.96c-12.63-3.34-21.89-8.02-27.77-14.05-5.88-6.03-8.64-13.18-8.28-21.45.36-11.33,5.39-20.53,15.08-27.61,9.69-7.08,21.51-10.54,35.45-10.4,13.87.15,25.1,3.67,33.7,10.56,8.6,6.9,12.98,16.19,13.12,27.88l-35.72-.11c.29-9.29-3.81-13.94-12.31-13.94-3.63,0-7.01,1.07-10.13,3.21-3.12,2.14-4.97,4.99-5.55,8.55-1.24,5.88,3.96,9.91,15.57,12.09,10.09,2.4,17.9,5.17,23.41,8.33,5.52,3.16,9.73,7.06,12.63,11.71,2.9,4.65,4.25,10.24,4.03,16.77-.22,7.12-2.54,13.47-6.97,19.06-4.43,5.59-10.84,10.06-19.22,13.39-8.39,3.34-17.48,4.9-27.28,4.68-8.49-.07-16.39-1.85-23.69-5.34-7.3-3.48-13-8.22-17.1-14.21-4.1-5.99-6.22-12.87-6.37-20.64l33.32.22c.14,10.45,5.37,15.61,15.68,15.46,4.43,0,8.2-1,11.32-2.99,3.12-2,5.08-4.81,5.88-8.44Z" fill="#111c1d" stroke-width="0"/></svg>